<?xml version="1.0" encoding="utf-8"?>
<svg width="1750px" height="253px" viewBox="0 0 1750 253" version="1.1" xmlns:xlink="http://www.w3.org/1999/xlink" xmlns="http://www.w3.org/2000/svg">
  <defs>
    <path d="M0 0L1750 0L1750 250L0 250L0 0Z" id="path_1" />
    <rect width="1750" height="252.77777" id="artboard_1" />
    <clipPath id="clip_1">
      <use xlink:href="#artboard_1" clip-rule="evenodd" />
    </clipPath>
    <clipPath id="mask_1">
      <use xlink:href="#path_1" />
    </clipPath>
  </defs>
  <g id="gp-logo-full-light" clip-path="url(#clip_1)">
    <path d="M0 0L1750 0L1750 250L0 250L0 0Z" id="Background-Mask" fill="none" fill-rule="evenodd" stroke="none" />
    <g clip-path="url(#mask_1)">
      <path d="M230.556 250L19.6181 250C8.68056 250 0 241.319 0 230.556L0 19.6181C0 8.68056 8.68056 0 19.6181 0L230.556 0C241.319 0 250 8.68056 250 19.6181L250 230.556C250 241.319 241.319 250 230.556 250L230.556 250Z" id="Light-Shadow" fill="#FFFFFF" fill-opacity="0.17082353" fill-rule="evenodd" stroke="none" />
      <path d="M204.861 222.222L17.3611 222.222C7.8125 222.222 0 214.41 0 204.861L0 17.3611C0 7.8125 7.8125 0 17.3611 0L204.861 0C214.41 0 222.222 7.8125 222.222 17.3611L222.222 204.861C222.222 214.41 214.41 222.222 204.861 222.222L204.861 222.222Z" transform="translate(14.954348 13.928633)" id="Blue" fill="#102A46" fill-rule="evenodd" stroke="none" />
      <path d="M0 0L0 166.667L166.667 166.667L166.667 0L0 0L0 0Z" transform="translate(42.732094 41.706375)" id="Green" fill="#339933" fill-rule="evenodd" stroke="none" />
      <path d="M111.111 111.111L0 111.111L0 0L111.111 0L111.111 111.111L111.111 111.111Z" transform="translate(70.51013 69.48441)" id="White" fill="#FFFFFF" fill-rule="evenodd" stroke="none" />
      <path d="M113.715 129.688C101.215 136.979 85.4167 140.625 66.8403 140.625C46.1806 140.625 29.6875 134.896 17.882 123.438C5.90279 111.979 0 96.1806 0 76.0417C0 55.7292 6.59723 39.2361 19.6181 26.5625C32.6389 13.8889 50 7.46529 71.7014 7.46529C85.4167 7.46529 97.3958 9.37501 107.813 13.1945L107.813 40.4514C97.9167 34.7222 85.7639 31.7708 71.3542 31.7708C59.375 31.7708 49.4792 35.7639 41.8403 43.5764C34.2014 51.3889 30.5556 61.8056 30.5556 74.8264C30.5556 88.0208 34.0278 98.2639 40.7986 105.556C47.5694 112.847 56.7708 116.493 68.4028 116.493C75.3472 116.493 80.9028 115.451 84.8958 113.542L84.8958 88.0208L59.0278 88.0208L59.0278 64.9306L113.889 64.9306L113.889 129.688L113.715 129.688L113.715 129.688ZM216.84 100.347L156.771 100.347C157.812 113.715 166.146 120.313 181.944 120.313C192.014 120.313 201.042 117.882 208.68 113.194L208.68 133.681C200.174 138.194 189.062 140.451 175.521 140.451C160.59 140.451 149.132 136.285 140.972 128.125C132.812 119.965 128.646 108.333 128.646 93.75C128.646 78.4722 133.16 66.3195 142.014 57.4653C150.868 48.6111 161.806 44.0972 174.653 44.0972C188.021 44.0972 198.438 48.0903 205.729 56.0764C213.021 64.0625 216.667 74.8264 216.667 88.5417L216.667 100.347L216.84 100.347L216.84 100.347ZM190.625 82.9861C190.625 69.7916 185.243 63.1944 174.653 63.1944C170.139 63.1944 166.146 65.1041 162.847 68.9236C159.549 72.743 157.465 77.4305 156.771 82.9861L190.625 82.9861L190.625 82.9861ZM275.868 140.625C260.59 140.625 248.438 136.285 239.757 127.778C230.903 119.097 226.563 107.465 226.563 92.7083C226.563 77.4306 231.076 65.625 240.278 56.9445C249.306 48.2639 261.632 44.0972 277.257 44.0972C292.535 44.0972 304.514 48.4375 313.194 56.9445C321.875 65.625 326.215 76.9097 326.215 90.9722C326.215 106.25 321.701 118.403 312.847 127.257C303.646 136.111 291.493 140.625 275.868 140.625L275.868 140.625ZM276.563 65.7985C269.792 65.7985 264.583 68.0555 260.938 72.743C257.292 77.4305 255.382 83.8541 255.382 92.3611C255.382 110.069 262.5 118.924 276.736 118.924C290.278 118.924 297.049 109.896 297.049 91.6666C297.049 74.3055 290.278 65.7985 276.563 65.7985L276.563 65.7985ZM372.569 93.9236L372.569 138.368L343.576 138.368L343.576 9.37498L389.062 9.37498C421.528 9.37498 437.847 23.0903 437.847 50.5208C437.847 63.5416 433.16 73.9583 423.958 81.9444C414.757 89.9305 402.257 93.9236 386.632 93.9236L372.569 93.9236L372.569 93.9236ZM372.569 31.7709L372.569 71.875L384.028 71.875C399.479 71.875 407.292 65.1042 407.292 51.5625C407.292 38.3681 399.479 31.7709 384.028 31.7709C384.028 31.7709 372.569 31.7709 372.569 31.7709L372.569 31.7709ZM477.431 138.368L448.958 138.368L448.958 2.08334L477.431 2.08334L477.431 138.368L477.431 138.368ZM575.174 138.368L548.264 138.368L548.264 125.174L547.917 125.174C541.667 135.417 532.639 140.625 520.486 140.625C511.632 140.625 504.514 138.021 499.479 132.986C494.445 127.951 491.84 121.181 491.84 112.674C491.84 94.7917 502.431 84.5486 523.611 81.7708L548.611 78.4722C548.611 68.4028 543.229 63.3681 532.292 63.3681C521.354 63.3681 510.938 66.6667 501.042 73.0903L501.042 51.7361C505.035 49.6528 510.417 47.9167 517.188 46.3542C523.958 44.7917 530.208 44.0972 535.938 44.0972C562.153 44.0972 575.347 57.1181 575.347 83.3333L575.174 138.368L575.174 138.368L575.174 138.368ZM548.437 100.868L548.437 94.7917L531.771 96.875C522.569 98.0903 517.882 102.257 517.882 109.375C517.882 112.674 518.924 115.278 521.18 117.361C523.437 119.444 526.389 120.486 530.382 120.486C535.764 120.486 540.104 118.576 543.403 114.931C546.875 111.285 548.437 106.597 548.437 100.868L548.437 100.868ZM648.611 137.153C644.444 139.41 638.021 140.451 629.687 140.451C609.722 140.451 599.653 130.035 599.653 109.201L599.653 67.1875L584.722 67.1875L584.722 46.3542L599.653 46.3542L599.653 26.3889L627.951 18.2292L627.951 46.1806L648.611 46.1806L648.611 67.1875L627.951 67.1875L627.951 104.34C627.951 113.889 631.771 118.75 639.41 118.75C642.361 118.75 645.486 117.882 648.611 116.146L648.611 137.153L648.611 137.153L648.611 137.153ZM724.305 23.7847C720.66 22.3958 717.188 21.7014 713.715 21.7014C704.687 21.7014 700 26.5625 700 36.4583L700 46.1805L721.007 46.1805L721.007 67.1875L700 67.1875L700 138.194L671.701 138.194L671.701 67.1875L656.424 67.1875L656.424 46.3542L671.875 46.3542L671.875 34.8958C671.875 24.4792 675.347 15.9722 682.118 9.54861C688.889 3.125 698.264 0 709.896 0C715.625 0 720.486 0.520832 724.306 1.73611L724.305 23.7847L724.305 23.7847L724.305 23.7847ZM775.868 140.625C760.59 140.625 748.438 136.285 739.757 127.778C730.903 119.097 726.563 107.465 726.563 92.7083C726.563 77.4306 731.076 65.625 740.278 56.9445C749.306 48.2639 761.632 44.0972 777.257 44.0972C792.535 44.0972 804.514 48.4375 813.195 56.9445C821.875 65.625 826.215 76.9097 826.215 90.9722C826.215 106.25 821.702 118.403 812.847 127.257C803.993 136.111 791.493 140.625 775.868 140.625L775.868 140.625ZM776.563 65.7985C769.792 65.7985 764.583 68.0555 760.938 72.743C757.292 77.4305 755.382 83.8541 755.382 92.3611C755.382 110.069 762.5 118.924 776.736 118.924C790.278 118.924 797.049 109.896 797.049 91.6666C797.222 74.3055 790.278 65.7985 776.563 65.7985L776.563 65.7985ZM901.215 71.875C897.743 69.9653 893.75 69.0972 889.236 69.0972C882.986 69.0972 878.299 71.3542 874.826 75.8681C871.354 80.3819 869.618 86.6319 869.618 94.2708L869.618 138.194L841.146 138.194L841.146 46.1806L869.618 46.1806L869.618 63.1944L869.965 63.1944C874.479 50.6944 882.465 44.4445 894.271 44.4445C897.222 44.4445 899.653 44.7917 901.215 45.4861L901.215 71.875L901.215 71.875ZM1057.29 138.368L1028.99 138.368L1028.99 85.7639C1028.99 72.3958 1024.13 65.7986 1014.24 65.7986C1009.55 65.7986 1005.73 67.882 1002.78 71.875C999.827 75.8681 998.438 80.9028 998.438 86.8056L998.438 138.368L969.965 138.368L969.965 85.2431C969.965 72.2222 965.104 65.7986 955.556 65.7986C950.695 65.7986 946.875 67.7083 943.924 71.5278C940.972 75.3472 939.583 80.5556 939.583 87.1528L939.583 138.368L911.111 138.368L911.111 46.3542L939.583 46.3542L939.583 60.7639L939.931 60.7639C942.882 55.9028 947.049 51.9097 952.257 48.7847C957.639 45.6597 963.368 44.0972 969.618 44.0972C982.639 44.0972 991.493 49.8264 996.354 61.2847C1003.3 49.8264 1013.72 44.0972 1027.26 44.0972C1047.22 44.0972 1057.29 56.4236 1057.29 81.0764L1057.29 138.368L1057.29 138.368ZM1090.45 140.625C1085.76 140.625 1081.94 139.236 1078.82 136.285C1075.69 133.333 1074.13 129.861 1074.13 125.694C1074.13 121.354 1075.69 117.882 1078.99 115.104C1082.12 112.326 1086.11 110.938 1090.97 110.938C1095.83 110.938 1099.83 112.326 1102.95 115.104C1106.08 117.882 1107.64 121.354 1107.64 125.694C1107.64 130.035 1106.08 133.681 1102.95 136.458C1099.48 139.063 1095.49 140.625 1090.45 140.625L1090.45 140.625ZM1213.72 127.778C1213.72 144.792 1208.85 158.16 1198.96 167.535C1189.06 176.91 1174.83 181.597 1156.08 181.597C1143.75 181.597 1133.85 179.861 1126.56 176.215L1126.56 152.257C1136.11 157.812 1145.66 160.59 1155.21 160.59C1164.76 160.59 1172.22 157.986 1177.43 152.951C1182.64 147.917 1185.42 140.972 1185.42 132.292L1185.42 125L1185.07 125C1178.65 135.243 1169.1 140.451 1156.42 140.451C1144.62 140.451 1135.42 136.285 1128.47 128.125C1121.53 119.792 1118.06 108.854 1118.06 94.7916C1118.06 79.1666 1121.88 66.8403 1129.51 57.6389C1137.15 48.4375 1147.22 43.9236 1159.72 43.9236C1171.01 43.9236 1179.34 48.2639 1184.9 56.9444L1185.24 56.9444L1185.24 46.1805L1213.72 46.1805L1213.72 127.778L1213.72 127.778ZM1185.76 94.0971L1185.76 86.8055C1185.76 81.0763 1184.03 76.0416 1180.56 71.8749C1177.08 67.7083 1172.57 65.7985 1167.19 65.7985C1160.94 65.7985 1155.9 68.2291 1152.43 73.0902C1148.96 77.9513 1147.05 84.8958 1147.05 93.9235C1147.05 101.562 1148.78 107.639 1152.26 112.153C1155.73 116.667 1160.42 118.924 1166.32 118.924C1172.22 118.924 1176.91 116.667 1180.56 112.153C1184.03 107.465 1185.76 101.562 1185.76 94.0971L1185.76 94.0971ZM1278.12 140.625C1262.85 140.625 1250.69 136.285 1242.01 127.778C1233.16 119.097 1228.82 107.465 1228.82 92.7083C1228.82 77.4306 1233.33 65.625 1242.53 56.9445C1251.56 48.2639 1263.89 44.0972 1279.51 44.0972C1294.79 44.0972 1306.77 48.4375 1315.45 56.9445C1324.13 65.625 1328.47 76.9097 1328.47 90.9722C1328.47 106.25 1323.96 118.403 1315.1 127.257C1306.25 136.111 1293.75 140.625 1278.12 140.625L1278.12 140.625ZM1278.82 65.7985C1272.05 65.7985 1266.84 68.0555 1263.19 72.743C1259.55 77.4305 1257.64 83.8541 1257.64 92.3611C1257.64 110.069 1264.76 118.924 1278.99 118.924C1292.53 118.924 1299.31 109.896 1299.31 91.6666C1299.31 74.3055 1292.54 65.7985 1278.82 65.7985L1278.82 65.7985ZM1428.47 46.3541L1394.27 138.368L1361.98 138.368L1329.34 46.3541L1359.72 46.3541L1375.69 103.125C1377.43 109.549 1378.47 114.931 1378.82 119.444L1379.17 119.444C1379.51 115.104 1380.73 109.896 1382.47 103.646L1398.79 46.3542C1398.78 46.3541 1428.47 46.3541 1428.47 46.3541L1428.47 46.3541Z" transform="translate(313.46155 51.081436)" id="GeoPlatfrom.gov-Mask" fill="#EFEFEF" fill-rule="evenodd" stroke="none" />
    </g>
  </g>
</svg>