<?xml version="1.0" encoding="utf-8"?>
<!-- Generator: Adobe Illustrator 25.0.1, SVG Export Plug-In . SVG Version: 6.00 Build 0)  -->
<svg version="1.1" id="Layer_1" xmlns="http://www.w3.org/2000/svg" xmlns:xlink="http://www.w3.org/1999/xlink" x="0px" y="0px"
	 viewBox="0 0 1000 144" style="enable-background:new 0 0 1000 144;" xml:space="preserve">
<style type="text/css">
	.st0{opacity:0.44;fill:#FFFFFF;}
	.st1{fill:#102A46;}
	.st2{fill:#339933;}
	.st3{fill:#FFFFFF;}
</style>
<path class="st0" d="M132.8,144H11.3C5,144,0,139,0,132.8V11.3C0,5,5,0,11.3,0h121.5C139,0,144,5,144,11.3v121.5
	C144,139,139,144,132.8,144z"/>
<path class="st1" d="M126,136H18c-5.5,0-10-4.5-10-10V18c0-5.5,4.5-10,10-10h108c5.5,0,10,4.5,10,10v108
	C136,131.5,131.5,136,126,136z"/>
<path class="st2" d="M24,24v96h96V24H24z"/>
<path class="st3" d="M104,104H40V40h64V104z"/>
<path class="st3" d="M234.4,104.1c-7.2,4.2-16.3,6.3-27,6.3c-11.9,0-21.4-3.3-28.2-9.9c-6.9-6.6-10.3-15.7-10.3-27.3
	c0-11.7,3.8-21.2,11.3-28.5s17.5-11,30-11c7.9,0,14.8,1.1,20.8,3.3v15.7c-5.7-3.3-12.7-5-21-5c-6.9,0-12.6,2.3-17,6.8
	s-6.5,10.5-6.5,18c0,7.6,2,13.5,5.9,17.7s9.2,6.3,15.9,6.3c4,0,7.2-0.6,9.5-1.7V80.1h-14.9V66.8h31.6v37.3H234.4z M293.8,87.2h-34.6
	c0.6,7.7,5.4,11.5,14.5,11.5c5.8,0,11-1.4,15.4-4.1v11.8c-4.9,2.6-11.3,3.9-19.1,3.9c-8.6,0-15.2-2.4-19.9-7.1S243,91.8,243,83.4
	c0-8.8,2.6-15.8,7.7-20.9c5.1-5.1,11.4-7.7,18.8-7.7c7.7,0,13.7,2.3,17.9,6.9c4.2,4.6,6.3,10.8,6.3,18.7v6.8H293.8z M278.7,77.2
	c0-7.6-3.1-11.4-9.2-11.4c-2.6,0-4.9,1.1-6.8,3.3s-3.1,4.9-3.5,8.1H278.7z M327.8,110.4c-8.8,0-15.8-2.5-20.8-7.4
	c-5.1-5-7.6-11.7-7.6-20.2c0-8.8,2.6-15.6,7.9-20.6c5.2-5,12.3-7.4,21.3-7.4c8.8,0,15.7,2.5,20.7,7.4c5,5,7.5,11.5,7.5,19.6
	c0,8.8-2.6,15.8-7.7,20.9C343.8,107.8,336.8,110.4,327.8,110.4z M328.2,67.3c-3.9,0-6.9,1.3-9,4s-3.2,6.4-3.2,11.3
	c0,10.2,4.1,15.3,12.3,15.3c7.8,0,11.7-5.2,11.7-15.7C340,72.2,336.1,67.3,328.2,67.3z M383.5,83.5v25.6h-16.7V34.8H393
	c18.7,0,28.1,7.9,28.1,23.7c0,7.5-2.7,13.5-8,18.1s-12.5,6.9-21.5,6.9H383.5z M383.5,47.7v23.1h6.6c8.9,0,13.4-3.9,13.4-11.7
	c0-7.6-4.5-11.4-13.4-11.4C390.1,47.7,383.5,47.7,383.5,47.7z M443.9,109.1h-16.4V30.6h16.4V109.1z M500.2,109.1h-15.5v-7.6h-0.2
	c-3.6,5.9-8.8,8.9-15.8,8.9c-5.1,0-9.2-1.5-12.1-4.4s-4.4-6.8-4.4-11.7c0-10.3,6.1-16.2,18.3-17.8l14.4-1.9c0-5.8-3.1-8.7-9.4-8.7
	s-12.3,1.9-18,5.6V59.2c2.3-1.2,5.4-2.2,9.3-3.1s7.5-1.3,10.8-1.3c15.1,0,22.7,7.5,22.7,22.6L500.2,109.1L500.2,109.1z M484.8,87.5
	V84l-9.6,1.2c-5.3,0.7-8,3.1-8,7.2c0,1.9,0.6,3.4,1.9,4.6s3,1.8,5.3,1.8c3.1,0,5.6-1.1,7.5-3.2C483.9,93.5,484.8,90.8,484.8,87.5z
	 M542.5,108.4c-2.4,1.3-6.1,1.9-10.9,1.9c-11.5,0-17.3-6-17.3-18V68.1h-8.6v-12h8.6V44.6l16.3-4.7V56h11.9v12.1h-11.9v21.4
	c0,5.5,2.2,8.3,6.6,8.3c1.7,0,3.5-0.5,5.3-1.5L542.5,108.4L542.5,108.4z M586.1,43.1c-2.1-0.8-4.1-1.2-6.1-1.2
	c-5.2,0-7.9,2.8-7.9,8.5V56h12.1v12.1h-12.1V109h-16.3V68.1H547v-12h8.9v-6.6c0-6,2-10.9,5.9-14.6s9.3-5.5,16-5.5
	c3.3,0,6.1,0.3,8.3,1L586.1,43.1L586.1,43.1z M615.8,110.4c-8.8,0-15.8-2.5-20.8-7.4c-5.1-5-7.6-11.7-7.6-20.2
	c0-8.8,2.6-15.6,7.9-20.6c5.2-5,12.3-7.4,21.3-7.4c8.8,0,15.7,2.5,20.7,7.4c5,5,7.5,11.5,7.5,19.6c0,8.8-2.6,15.8-7.7,20.9
	S624.8,110.4,615.8,110.4z M616.2,67.3c-3.9,0-6.9,1.3-9,4s-3.2,6.4-3.2,11.3c0,10.2,4.1,15.3,12.3,15.3c7.8,0,11.7-5.2,11.7-15.7
	C628.1,72.2,624.1,67.3,616.2,67.3z M688,70.8c-2-1.1-4.3-1.6-6.9-1.6c-3.6,0-6.3,1.3-8.3,3.9s-3,6.2-3,10.6V109h-16.4V56h16.4v9.8
	h0.2c2.6-7.2,7.2-10.8,14-10.8c1.7,0,3.1,0.2,4,0.6V70.8z M777.9,109.1h-16.3V78.8c0-7.7-2.8-11.5-8.5-11.5c-2.7,0-4.9,1.2-6.6,3.5
	c-1.7,2.3-2.5,5.2-2.5,8.6v29.7h-16.4V78.5c0-7.5-2.8-11.2-8.3-11.2c-2.8,0-5,1.1-6.7,3.3c-1.7,2.2-2.5,5.2-2.5,9v29.5h-16.4v-53
	h16.4v8.3h0.2c1.7-2.8,4.1-5.1,7.1-6.9c3.1-1.8,6.4-2.7,10-2.7c7.5,0,12.6,3.3,15.4,9.9c4-6.6,10-9.9,17.8-9.9
	c11.5,0,17.3,7.1,17.3,21.3V109.1z M797,110.4c-2.7,0-4.9-0.8-6.7-2.5s-2.7-3.7-2.7-6.1c0-2.5,0.9-4.5,2.8-6.1
	c1.8-1.6,4.1-2.4,6.9-2.4c2.8,0,5.1,0.8,6.9,2.4c1.8,1.6,2.7,3.6,2.7,6.1s-0.9,4.6-2.7,6.2C802.2,109.5,799.9,110.4,797,110.4z
	 M868,103c0,9.8-2.8,17.5-8.5,22.9s-13.9,8.1-24.7,8.1c-7.1,0-12.8-1-17-3.1v-13.8c5.5,3.2,11,4.8,16.5,4.8s9.8-1.5,12.8-4.4
	s4.6-6.9,4.6-11.9v-4.2h-0.2c-3.7,5.9-9.2,8.9-16.5,8.9c-6.8,0-12.1-2.4-16.1-7.1c-4-4.8-6-11.1-6-19.2c0-9,2.2-16.1,6.6-21.4
	c4.4-5.3,10.2-7.9,17.4-7.9c6.5,0,11.3,2.5,14.5,7.5h0.2V56H868V103z M851.9,83.6v-4.2c0-3.3-1-6.2-3-8.6s-4.6-3.5-7.7-3.5
	c-3.6,0-6.5,1.4-8.5,4.2s-3.1,6.8-3.1,12c0,4.4,1,7.9,3,10.5s4.7,3.9,8.1,3.9c3.4,0,6.1-1.3,8.2-3.9
	C850.9,91.3,851.9,87.9,851.9,83.6z M905.1,110.4c-8.8,0-15.8-2.5-20.8-7.4c-5.1-5-7.6-11.7-7.6-20.2c0-8.8,2.6-15.6,7.9-20.6
	c5.2-5,12.3-7.4,21.3-7.4c8.8,0,15.7,2.5,20.7,7.4c5,5,7.5,11.5,7.5,19.6c0,8.8-2.6,15.8-7.7,20.9S914.1,110.4,905.1,110.4z
	 M905.5,67.3c-3.9,0-6.9,1.3-9,4s-3.2,6.4-3.2,11.3c0,10.2,4.1,15.3,12.3,15.3c7.8,0,11.7-5.2,11.7-15.7
	C917.3,72.2,913.4,67.3,905.5,67.3z M991.7,56.1l-19.7,53h-18.6l-18.8-53h17.5l9.2,32.7c1,3.7,1.6,6.8,1.8,9.4h0.2
	c0.2-2.5,0.9-5.5,1.9-9.1l9.4-33C974.6,56.1,991.7,56.1,991.7,56.1z"/>
<desc>GeoPlatform.gov logo</desc>
</svg>
