<?xml version="1.0" encoding="utf-8"?>
<svg width="1500px" height="200px" viewBox="0 0 1500 200" version="1.1" xmlns:xlink="http://www.w3.org/1999/xlink" xmlns="http://www.w3.org/2000/svg">
  <defs>
    <path d="M0 0L1500 0L1500 200L0 200L0 0Z" id="path_1" />
    <rect width="1500" height="200" id="artboard_1" />
    <clipPath id="clip_1">
      <use xlink:href="#artboard_1" clip-rule="evenodd" />
    </clipPath>
    <clipPath id="mask_1">
      <use xlink:href="#path_1" />
    </clipPath>
  </defs>
  <g id="full-light" clip-path="url(#clip_1)">
    <path d="M0 0L1500 0L1500 200L0 200L0 0Z" id="Background-Mask" fill="none" fill-rule="evenodd" stroke="none" />
    <g clip-path="url(#mask_1)">
      <path d="M184.444 200L15.6944 200C6.94444 200 0 193.056 0 184.444L0 15.6944C0 6.94444 6.94444 0 15.6944 0L184.444 0C193.056 0 200 6.94444 200 15.6944L200 184.444C200 193.056 193.056 200 184.444 200L184.444 200Z" id="Light-Shadow" fill="#E0E0E0" fill-opacity="0.15356863" fill-rule="evenodd" stroke="none" />
      <path d="M156.719 170L13.2812 170C5.97656 170 0 164.023 0 156.719L0 13.2812C0 5.97656 5.97656 0 13.2812 0L156.719 0C164.023 0 170 5.97656 170 13.2812L170 156.719C170 164.023 164.023 170 156.719 170L156.719 170Z" transform="translate(14.999998 14.999998)" id="Blue" fill="#102A46" fill-rule="evenodd" stroke="none" />
      <path d="M0 0L0 130L130 130L130 0L0 0L0 0Z" transform="translate(34.999996 35.00061)" id="Green" fill="#339933" fill-rule="evenodd" stroke="none" />
      <path d="M90 90L0 90L0 0L90 0L90 90L90 90Z" transform="translate(54.999996 54.999996)" id="White" fill="#FFFFFF" fill-rule="evenodd" stroke="none" />
      <path d="M98.5693 112.415C87.7342 118.735 74.0399 121.895 57.9377 121.895C40.0297 121.895 25.7334 116.929 15.5002 106.997C5.11659 97.0648 0 83.3704 0 65.9139C0 48.3068 5.71853 34.0105 17.0051 23.0249C28.2917 12.0393 43.3404 6.47125 62.1514 6.47125C74.0399 6.47125 84.4235 8.12661 93.4528 11.4373L93.4528 35.0639C84.875 30.0978 74.3409 27.5395 61.8504 27.5395C51.4668 27.5395 42.889 31.0007 36.2675 37.7727C29.6461 44.5446 26.4858 53.5739 26.4858 64.8605C26.4858 76.2975 29.4956 85.1763 35.3646 91.4967C41.2336 97.8172 49.2094 100.977 59.2921 100.977C65.3116 100.977 70.1272 100.075 73.5884 98.4192L73.5884 76.2975L51.1658 76.2975L51.1658 56.2827L98.7198 56.2827L98.7198 112.415L98.5693 112.415L98.5693 112.415ZM187.959 86.9819L135.89 86.9819C136.793 98.5694 144.017 104.288 157.711 104.288C166.439 104.288 174.265 102.181 180.886 98.118L180.886 115.876C173.512 119.788 163.881 121.745 152.143 121.745C139.201 121.745 129.269 118.133 122.196 111.06C115.123 103.987 111.511 93.9043 111.511 81.2634C111.511 68.0204 115.424 57.4863 123.099 49.8114C130.774 42.1366 140.254 38.2239 151.391 38.2239C162.978 38.2239 172.007 41.6851 178.328 48.6075C184.648 55.53 187.808 64.8602 187.808 76.7487L187.808 86.9819L187.959 86.9819L187.959 86.9819ZM165.235 71.9331C165.235 60.4961 160.57 54.7775 151.391 54.7775C147.478 54.7775 144.017 56.4329 141.157 59.7436C138.298 63.0544 136.492 67.1175 135.89 71.9331L165.235 71.9331L165.235 71.9331ZM239.125 121.895C225.882 121.895 215.348 118.133 207.823 110.759C200.148 103.235 196.386 93.1519 196.386 80.3604C196.386 67.1175 200.299 56.8843 208.275 49.36C216.1 41.8356 226.785 38.2239 240.329 38.2239C253.571 38.2239 263.955 41.9861 271.479 49.36C279.004 56.8843 282.766 66.666 282.766 78.8555C282.766 92.0985 278.853 102.633 271.178 110.307C263.203 117.982 252.669 121.895 239.125 121.895L239.125 121.895ZM239.727 57.0346C233.858 57.0346 229.343 58.991 226.183 63.0541C223.023 67.1173 221.367 72.6853 221.367 80.0592C221.367 95.409 227.537 103.084 239.877 103.084C251.615 103.084 257.484 95.2585 257.484 79.4573C257.484 64.4085 251.615 57.0346 239.727 57.0346L239.727 57.0346ZM322.946 81.414L322.946 119.939L297.815 119.939L297.815 8.12653L337.243 8.12653C365.384 8.12653 379.53 20.015 379.53 43.7921C379.53 55.0786 375.466 64.1079 367.491 71.0303C359.515 77.9528 348.68 81.414 335.136 81.414L322.946 81.414L322.946 81.414ZM322.946 27.5391L322.946 62.3017L332.878 62.3017C346.272 62.3017 353.044 56.4327 353.044 44.6947C353.044 33.2576 346.272 27.5391 332.878 27.5391C332.878 27.5391 322.946 27.5391 322.946 27.5391L322.946 27.5391ZM413.841 119.939L389.161 119.939L389.161 1.80573L413.841 1.80573L413.841 119.939L413.841 119.939ZM498.565 119.939L475.24 119.939L475.24 108.502L474.939 108.502C469.521 117.38 461.696 121.895 451.162 121.895C443.487 121.895 437.317 119.638 432.953 115.274C428.589 110.909 426.331 105.04 426.331 97.6665C426.331 82.1663 435.511 73.2875 453.871 70.8797L475.541 68.0204C475.541 59.2921 470.876 54.928 461.395 54.928C451.914 54.928 442.885 57.7873 434.307 63.3553L434.307 44.8453C437.768 43.0395 442.434 41.5346 448.303 40.1802C454.172 38.8258 459.589 38.2239 464.555 38.2239C487.279 38.2239 498.716 49.5105 498.716 72.2341L498.565 119.939L498.565 119.939L498.565 119.939ZM475.39 87.4335L475.39 82.1664L460.943 83.9723C452.967 85.0257 448.904 88.6374 448.904 94.8074C448.904 97.6667 449.807 99.924 451.764 101.73C453.72 103.536 456.278 104.439 459.739 104.439C464.405 104.439 468.167 102.783 471.026 99.623C474.036 96.4628 475.39 92.3996 475.39 87.4335L475.39 87.4335ZM562.222 118.885C558.61 120.841 553.042 121.744 545.818 121.744C528.512 121.744 519.784 112.715 519.784 94.6566L519.784 58.2386L506.842 58.2386L506.842 40.1801L519.784 40.1801L519.784 22.874L544.314 15.8011L544.314 40.0296L562.222 40.0296L562.222 58.2386L544.314 58.2386L544.314 90.4429C544.314 98.7198 547.624 102.933 554.246 102.933C556.804 102.933 559.513 102.181 562.222 100.676L562.222 118.885L562.222 118.885L562.222 118.885ZM627.834 20.6168C624.674 19.4129 621.664 18.8109 618.654 18.8109C610.829 18.8109 606.766 23.0246 606.766 31.6024L606.766 40.0297L624.975 40.0297L624.975 58.2387L606.766 58.2387L606.766 119.788L582.236 119.788L582.236 58.2387L568.993 58.2387L568.993 40.1802L582.387 40.1802L582.387 30.248C582.387 21.2187 585.397 13.8449 591.266 8.27682C597.135 2.70878 605.261 0 615.344 0C620.31 0 624.523 0.451462 627.834 1.50488L627.834 20.6168L627.834 20.6168L627.834 20.6168ZM672.529 121.895C659.286 121.895 648.752 118.133 641.228 110.759C633.553 103.235 629.791 93.1519 629.791 80.3604C629.791 67.1175 633.703 56.8843 641.679 49.36C649.504 41.8356 660.189 38.2239 673.733 38.2239C686.976 38.2239 697.36 41.9861 704.884 49.36C712.408 56.8843 716.171 66.666 716.171 78.8555C716.171 92.0985 712.258 102.633 704.583 110.307C696.908 117.982 686.073 121.895 672.529 121.895L672.529 121.895ZM673.131 57.0346C667.262 57.0346 662.747 58.991 659.587 63.0541C656.427 67.1173 654.771 72.6853 654.771 80.0592C654.771 95.409 660.941 103.084 673.281 103.084C685.019 103.084 690.888 95.2585 690.888 79.4573C691.039 64.4085 685.019 57.0346 673.131 57.0346L673.131 57.0346ZM781.181 62.3015C778.171 60.6462 774.71 59.8937 770.797 59.8937C765.38 59.8937 761.317 61.8501 758.307 65.7627C755.297 69.6754 753.792 75.093 753.792 81.7144L753.792 119.788L729.112 119.788L729.112 40.0293L753.792 40.0293L753.792 54.7771L754.093 54.7771C758.006 43.942 764.928 38.5245 775.161 38.5245C777.72 38.5245 779.826 38.8255 781.181 39.4274L781.181 62.3015L781.181 62.3015ZM916.469 119.939L891.94 119.939L891.94 74.3409C891.94 62.7534 887.726 57.0348 879.148 57.0348C875.085 57.0348 871.774 58.8407 869.216 62.3019C866.658 65.7631 865.454 70.1272 865.454 75.2438L865.454 119.939L840.774 119.939L840.774 73.8894C840.774 62.6029 836.56 57.0348 828.284 57.0348C824.07 57.0348 820.759 58.6902 818.201 62.0009C815.643 65.3116 814.439 69.8263 814.439 75.5448L814.439 119.939L789.759 119.939L789.759 40.1802L814.439 40.1802L814.439 52.6707L814.74 52.6707C817.298 48.457 820.91 44.9958 825.424 42.287C830.089 39.5783 835.056 38.2239 840.473 38.2239C851.76 38.2239 859.435 43.19 863.648 53.1222C869.668 43.19 878.697 38.2239 890.435 38.2239C907.741 38.2239 916.469 48.9085 916.469 70.2777L916.469 119.939L916.469 119.939ZM945.212 121.895C941.149 121.895 937.838 120.691 935.13 118.133C932.421 115.574 931.066 112.565 931.066 108.953C931.066 105.191 932.421 102.181 935.28 99.7732C937.989 97.3654 941.45 96.1615 945.664 96.1615C949.877 96.1615 953.339 97.3654 956.047 99.7732C958.756 102.181 960.111 105.191 960.111 108.953C960.111 112.715 958.756 115.875 956.047 118.283C953.038 120.54 949.576 121.895 945.212 121.895L945.212 121.895ZM1052.06 110.759C1052.06 125.507 1047.85 137.094 1039.27 145.221C1030.69 153.347 1018.35 157.41 1002.1 157.41C991.412 157.41 982.834 155.905 976.514 152.745L976.514 131.978C984.791 136.793 993.068 139.201 1001.34 139.201C1009.62 139.201 1016.09 136.944 1020.61 132.58C1025.12 128.215 1027.53 122.196 1027.53 114.672L1027.53 108.351L1027.23 108.351C1021.66 117.23 1013.38 121.745 1002.4 121.745C992.165 121.745 984.189 118.133 978.169 111.06C972.15 103.836 969.14 94.3558 969.14 82.1663C969.14 68.6224 972.451 57.9378 979.072 49.9619C985.694 41.9861 994.422 38.0734 1005.26 38.0734C1015.04 38.0734 1022.26 41.8356 1027.08 49.36L1027.38 49.36L1027.38 40.0298L1052.06 40.0298L1052.06 110.759L1052.06 110.759ZM1027.83 81.5641L1027.83 75.2436C1027.83 70.2775 1026.33 65.9134 1023.32 62.3017C1020.31 58.69 1016.39 57.0346 1011.73 57.0346C1006.31 57.0346 1001.95 59.1414 998.937 63.3551C995.927 67.5687 994.272 73.5882 994.272 81.4136C994.272 88.035 995.776 93.3021 998.786 97.2148C1001.8 101.127 1005.86 103.084 1010.98 103.084C1016.09 103.084 1020.16 101.127 1023.32 97.2148C1026.33 93.1516 1027.83 88.035 1027.83 81.5641L1027.83 81.5641ZM1107.89 121.895C1094.65 121.895 1084.11 118.133 1076.59 110.759C1068.91 103.235 1065.15 93.1519 1065.15 80.3604C1065.15 67.1175 1069.06 56.8843 1077.04 49.36C1084.87 41.8356 1095.55 38.2239 1109.09 38.2239C1122.34 38.2239 1132.72 41.9861 1140.24 49.36C1147.77 56.8843 1151.53 66.666 1151.53 78.8555C1151.53 92.0985 1147.62 102.633 1139.94 110.307C1132.27 117.982 1121.43 121.895 1107.89 121.895L1107.89 121.895ZM1108.49 57.0346C1102.62 57.0346 1098.11 58.991 1094.95 63.0541C1091.79 67.1173 1090.13 72.6853 1090.13 80.0592C1090.13 95.409 1096.3 103.084 1108.64 103.084C1120.38 103.084 1126.25 95.2585 1126.25 79.4573C1126.25 64.4085 1120.38 57.0346 1108.49 57.0346L1108.49 57.0346ZM1238.21 40.1801L1208.57 119.938L1180.58 119.938L1152.28 40.1801L1178.62 40.1801L1192.46 89.3895C1193.97 94.9576 1194.87 99.6227 1195.17 103.535L1195.47 103.535C1195.77 99.7732 1196.83 95.2585 1198.33 89.841L1212.48 40.1801C1212.48 40.1801 1238.21 40.1801 1238.21 40.1801L1238.21 40.1801Z" transform="translate(260.00003 38.299866)" id="GeoPlatfrom.gov-Mask" fill="#EFEFEF" fill-rule="evenodd" stroke="none" />
    </g>
  </g>
</svg>